<svg width="20" height="21" viewBox="0 0 20 21" fill="none" xmlns="http://www.w3.org/2000/svg">
<path d="M9 1.67995V19.32C9 19.96 8.41 20.44 7.79 20.3C3.32 19.3 0 15.29 0 10.5C0 5.70995 3.32 1.69995 7.79 0.699954C8.41 0.559954 9 1.03995 9 1.67995ZM11.03 1.67995V8.48995C11.03 9.03995 11.48 9.48995 12.03 9.48995H18.82C19.46 9.48995 19.94 8.89995 19.8 8.26995C18.95 4.50995 16 1.54995 12.25 0.699954C11.62 0.559954 11.03 1.03995 11.03 1.67995ZM11.03 12.51V19.32C11.03 19.96 11.62 20.44 12.25 20.3C16.01 19.45 18.96 16.48 19.81 12.72C19.95 12.1 19.46 11.5 18.83 11.5H12.04C11.48 11.51 11.03 11.96 11.03 12.51Z" fill="white"/>
</svg>
