<svg width="17" height="20" viewBox="0 0 17 20" fill="none" xmlns="http://www.w3.org/2000/svg">
<path d="M8.5 9.16113C7.17 9.16113 4.5 9.83113 4.5 11.1611V11.3211C5.47 12.4411 6.9 13.1611 8.5 13.1611C10.1 13.1611 11.53 12.4411 12.5 11.3211V11.1611C12.5 9.83113 9.83 9.16113 8.5 9.16113ZM8.5 8.16113C9.6 8.16113 10.5 7.26113 10.5 6.16113C10.5 5.06113 9.6 4.16113 8.5 4.16113C7.4 4.16113 6.5 5.06113 6.5 6.16113C6.5 7.26113 7.4 8.16113 8.5 8.16113ZM8.5 0.161133C12.7 0.161133 16.5 3.38113 16.5 8.36113C16.5 11.5411 14.05 15.2811 9.16 19.5911C8.78 19.9211 8.21 19.9211 7.83 19.5911C2.95 15.2811 0.5 11.5411 0.5 8.36113C0.5 3.38113 4.3 0.161133 8.5 0.161133Z" fill="#323232"/>
</svg>
