<svg width="119" height="118" viewBox="0 0 119 118" fill="none" xmlns="http://www.w3.org/2000/svg">
<path d="M95.2502 81.3332V51.5416C95.2502 33.2495 85.4785 17.9366 68.4377 13.8849V9.83325C68.4377 4.88784 64.386 0.895752 59.4406 0.895752C54.4952 0.895752 50.5627 4.88784 50.5627 9.83325V13.8849C33.4623 17.9366 23.7502 33.1899 23.7502 51.5416V81.3332L16.0044 89.0195C12.2506 92.7733 14.8723 99.2082 20.1752 99.2082H98.6464C103.949 99.2082 106.631 92.7733 102.877 89.0195L95.2502 81.3332ZM59.4406 117.083C65.9948 117.083 71.3573 111.721 71.3573 105.167H47.5239C47.5239 111.721 52.8269 117.083 59.4406 117.083ZM28.3381 14.1828C30.8406 11.9187 30.9002 8.04575 28.5169 5.66242C26.2527 3.39825 22.5585 3.33867 20.2348 5.54325C10.046 14.8383 3.01519 27.4699 0.751023 41.6507C0.214773 45.2853 3.01519 48.5624 6.70936 48.5624C9.56936 48.5624 12.0719 46.477 12.5485 43.617C14.336 32.0578 20.056 21.7499 28.3381 14.1828ZM98.8252 5.54325C96.4419 3.33867 92.7477 3.39825 90.4835 5.66242C88.1002 8.04575 88.2194 11.8591 90.6623 14.1233C98.8848 21.6903 104.664 31.9982 106.452 43.5574C106.869 46.4174 109.371 48.5028 112.291 48.5028C115.926 48.5028 118.786 45.2257 118.19 41.5912C115.926 27.4699 108.954 14.8978 98.8252 5.54325Z" fill="white"/>
</svg>
