<svg width="18" height="16" viewBox="0 0 18 16" fill="none" xmlns="http://www.w3.org/2000/svg">
<path d="M4.4165 15.5H1.49984C1.0415 15.5 0.666504 15.125 0.666504 14.6667V6.33333C0.666504 5.875 1.0415 5.5 1.49984 5.5H4.4165C4.87484 5.5 5.24984 5.875 5.24984 6.33333V14.6667C5.24984 15.125 4.87484 15.5 4.4165 15.5ZM10.4582 0.5H7.5415C7.08317 0.5 6.70817 0.875 6.70817 1.33333V14.6667C6.70817 15.125 7.08317 15.5 7.5415 15.5H10.4582C10.9165 15.5 11.2915 15.125 11.2915 14.6667V1.33333C11.2915 0.875 10.9165 0.5 10.4582 0.5ZM16.4998 7.16667H13.5832C13.1248 7.16667 12.7498 7.54167 12.7498 8V14.6667C12.7498 15.125 13.1248 15.5 13.5832 15.5H16.4998C16.9582 15.5 17.3332 15.125 17.3332 14.6667V8C17.3332 7.54167 16.9582 7.16667 16.4998 7.16667Z" fill="url(#paint0_linear_328_2216)"/>
<defs>
<linearGradient id="paint0_linear_328_2216" x1="8.99984" y1="0.5" x2="24.4998" y2="16" gradientUnits="userSpaceOnUse">
<stop stop-color="white"/>
<stop offset="1" stop-color="#999999"/>
</linearGradient>
</defs>
</svg>
