<svg width="18" height="19" viewBox="0 0 18 19" fill="none" xmlns="http://www.w3.org/2000/svg">
<path d="M0.720137 3.54C1.19014 4 1.93014 4.02 2.43014 3.6C2.80014 3.28 3.12014 3.09 3.30014 3.17C3.80014 3.37 3.30014 4.2 3.00014 4.69C2.75014 5.11 0.140137 8.58 0.140137 11C0.140137 12.28 0.620137 13.34 1.48014 13.98C2.23014 14.54 3.22014 14.71 4.12014 14.44C5.19014 14.13 6.07014 13.04 7.18014 11.67C8.39014 10.18 10.0101 8.23 11.2601 8.23C12.8901 8.23 12.9101 9.24 13.0201 10.02C9.24014 10.66 7.64014 13.69 7.64014 15.39C7.64014 17.09 9.08014 18.48 10.8501 18.48C12.4801 18.48 15.1401 17.15 15.5401 12.38H16.7501C17.4401 12.38 18.0001 11.82 18.0001 11.13C18.0001 10.44 17.4401 9.88 16.7501 9.88H15.5301C15.3801 8.23 14.4401 5.68 11.5001 5.68C9.25014 5.68 7.32014 7.59 6.56014 8.52C5.98014 9.25 4.50014 11 4.27014 11.24C4.02014 11.54 3.59014 12.08 3.16014 12.08C2.71014 12.08 2.44014 11.25 2.80014 10.16C3.15014 9.07 4.20014 7.3 4.65014 6.64C5.43014 5.5 5.95014 4.72 5.95014 3.36C5.95014 1.19 4.31014 0.5 3.44014 0.5C2.35014 0.5 1.40014 1.13 0.740137 1.72C0.210137 2.2 0.210137 3.04 0.720137 3.54ZM10.8801 16.05C10.5701 16.05 10.1401 15.79 10.1401 15.33C10.1401 14.73 10.8701 13.13 13.0101 12.57C12.7101 15.26 11.5801 16.05 10.8801 16.05Z" fill="white"/>
</svg>
