<svg width="16" height="23" viewBox="0 0 16 23" fill="none" xmlns="http://www.w3.org/2000/svg">
<path d="M10.49 4.97998C11.59 4.97998 12.49 4.07998 12.49 2.97998C12.49 1.87998 11.59 0.97998 10.49 0.97998C9.39004 0.97998 8.49004 1.87998 8.49004 2.97998C8.49004 4.07998 9.39004 4.97998 10.49 4.97998ZM7.32004 16.98L7.89004 14.48L9.99004 16.48V21.48C9.99004 22.03 10.44 22.48 10.99 22.48C11.54 22.48 11.99 22.03 11.99 21.48V15.84C11.99 15.29 11.77 14.77 11.37 14.39L9.89004 12.98L10.49 9.97998C11.56 11.22 13.11 12.11 14.85 12.39C15.45 12.48 15.99 12 15.99 11.39C15.99 10.9 15.63 10.49 15.14 10.41C13.62 10.16 12.36 9.25998 11.69 8.07998L10.69 6.47998C10.29 5.87998 9.69004 5.47998 8.99004 5.47998C8.69004 5.47998 8.49004 5.57998 8.19004 5.57998L4.21004 7.25998C3.47004 7.57998 2.99004 8.29998 2.99004 9.10998V11.48C2.99004 12.03 3.44004 12.48 3.99004 12.48C4.54004 12.48 4.99004 12.03 4.99004 11.48V9.07998L6.79004 8.37998L5.19004 16.48L1.27004 15.68C0.73004 15.57 0.20004 15.92 0.0900401 16.46V16.5C-0.0199599 17.04 0.33004 17.57 0.87004 17.68L4.98004 18.5C6.04004 18.71 7.08004 18.04 7.32004 16.98Z" fill="white"/>
</svg>
