<svg width="15" height="14" viewBox="0 0 15 14" fill="none" xmlns="http://www.w3.org/2000/svg">
<path d="M6.29167 6.08341C6.29167 5.69383 6.61042 5.37508 7 5.37508C7.38958 5.37508 7.70833 5.69383 7.70833 6.08341V11.0417H6.29167V6.08341ZM12.6667 8.20841C12.2771 8.20841 11.9583 8.52716 11.9583 8.91675V12.4584H2.04167V2.54175H5.58333C5.97292 2.54175 6.29167 2.223 6.29167 1.83341C6.29167 1.44383 5.97292 1.12508 5.58333 1.12508H2.04167C1.2625 1.12508 0.625 1.76258 0.625 2.54175V12.4584C0.625 13.2376 1.2625 13.8751 2.04167 13.8751H11.9583C12.7375 13.8751 13.375 13.2376 13.375 12.4584V8.91675C13.375 8.52716 13.0562 8.20841 12.6667 8.20841ZM13.375 2.54175H11.9583V1.12508C11.9583 0.735498 11.6396 0.416748 11.25 0.416748C10.8604 0.416748 10.5417 0.735498 10.5417 1.12508V2.54175H9.125C8.73542 2.54175 8.41667 2.8605 8.41667 3.25008C8.41667 3.63966 8.73542 3.95841 9.125 3.95841H10.5417V5.37508C10.5417 5.76466 10.8604 6.08341 11.25 6.08341C11.6396 6.08341 11.9583 5.76466 11.9583 5.37508V3.95841H13.375C13.7646 3.95841 14.0833 3.63966 14.0833 3.25008C14.0833 2.8605 13.7646 2.54175 13.375 2.54175ZM9.83333 8.20841C9.44375 8.20841 9.125 8.52716 9.125 8.91675V11.0417H10.5417V8.91675C10.5417 8.52716 10.2229 8.20841 9.83333 8.20841ZM3.45833 7.50008V11.0417H4.875V7.50008C4.875 7.1105 4.55625 6.79175 4.16667 6.79175C3.77708 6.79175 3.45833 7.1105 3.45833 7.50008Z" fill="#A467EE"/>
</svg>
