<svg width="127" height="127" viewBox="0 0 127 127" fill="none" xmlns="http://www.w3.org/2000/svg">
<path d="M70.4207 63.4999C70.4207 59.662 67.3377 56.5791 63.4998 56.5791C59.6619 56.5791 56.579 59.662 56.579 63.4999C56.579 67.3378 59.6619 70.4208 63.4998 70.4208C67.3377 70.4208 70.4207 67.3378 70.4207 63.4999ZM126.417 63.4999C126.417 28.7699 98.2298 0.583251 63.4998 0.583249C28.7698 0.583248 0.583159 28.7699 0.583158 63.4999C0.583156 98.2299 28.7698 126.417 63.4998 126.417C98.2298 126.417 126.416 98.2299 126.417 63.4999ZM49.7211 77.2787L25.7498 25.7499L77.2786 49.7212L101.25 101.25L49.7211 77.2787Z" fill="white"/>
</svg>
