<svg width="10" height="15" viewBox="0 0 10 15" fill="none" xmlns="http://www.w3.org/2000/svg">
<path d="M4.99984 0.416748C2.25859 0.416748 0.0415039 2.63383 0.0415039 5.37508C0.0415039 8.32883 3.17234 12.4017 4.4615 13.953C4.74484 14.293 5.26192 14.293 5.54525 13.953C6.82734 12.4017 9.95817 8.32883 9.95817 5.37508C9.95817 2.63383 7.74109 0.416748 4.99984 0.416748ZM4.99984 7.14591C4.02234 7.14591 3.229 6.35258 3.229 5.37508C3.229 4.39758 4.02234 3.60425 4.99984 3.60425C5.97734 3.60425 6.77067 4.39758 6.77067 5.37508C6.77067 6.35258 5.97734 7.14591 4.99984 7.14591Z" fill="#C5D664"/>
</svg>
