<svg width="14" height="15" viewBox="0 0 14 15" fill="none" xmlns="http://www.w3.org/2000/svg">
<path d="M11.9583 2.12492H8.9975C8.7 1.30325 7.92083 0.708252 7 0.708252C6.07917 0.708252 5.3 1.30325 5.0025 2.12492H2.04167C1.2625 2.12492 0.625 2.76242 0.625 3.54159V13.4583C0.625 14.2374 1.2625 14.8749 2.04167 14.8749H11.9583C12.7375 14.8749 13.375 14.2374 13.375 13.4583V3.54159C13.375 2.76242 12.7375 2.12492 11.9583 2.12492ZM7 2.12492C7.38958 2.12492 7.70833 2.44367 7.70833 2.83325C7.70833 3.22284 7.38958 3.54159 7 3.54159C6.61042 3.54159 6.29167 3.22284 6.29167 2.83325C6.29167 2.44367 6.61042 2.12492 7 2.12492ZM7 4.95825C8.17583 4.95825 9.125 5.90742 9.125 7.08325C9.125 8.25909 8.17583 9.20825 7 9.20825C5.82417 9.20825 4.875 8.25909 4.875 7.08325C4.875 5.90742 5.82417 4.95825 7 4.95825ZM11.25 13.4583H2.75V12.4666C2.75 11.0499 5.58333 10.2708 7 10.2708C8.41667 10.2708 11.25 11.0499 11.25 12.4666V13.4583Z" fill="#C5D664"/>
</svg>
