<svg width="17" height="13" viewBox="0 0 17 13" fill="none" xmlns="http://www.w3.org/2000/svg">
<path d="M13.8825 9.75996L12.825 8.70246L16.185 5.34246C16.77 5.92746 16.77 6.87996 16.185 7.46496L13.8825 9.75996ZM15.66 4.80996L12.3 8.16996L6.975 2.85246L9.2925 0.549956C9.8775 -0.0350443 10.8225 -0.0275443 11.4075 0.549956L15.66 4.80996Z" fill="white"/>
<path d="M6.9675 7.08246C7.1025 7.23246 7.1025 7.45746 6.96 7.60746C6.885 7.68246 6.7875 7.71996 6.6975 7.71996C6.6075 7.71996 6.5025 7.68246 6.435 7.60746L5.1525 6.32496C5.07 6.62496 4.9575 6.90996 4.815 7.16496L5.865 8.21496C6.015 8.36496 6.015 8.59746 5.865 8.74746C5.79 8.82246 5.6925 8.85996 5.6025 8.85996C5.5125 8.85996 5.4075 8.82246 5.34 8.74746L4.3875 7.79496C4.2075 8.01246 4.0125 8.21496 3.81 8.39496L4.77 9.35496C4.92 9.50496 4.92 9.73746 4.77 9.88746C4.695 9.96246 4.5975 9.99996 4.5 9.99996C4.4025 9.99996 4.305 9.96246 4.2375 9.88746L3.2025 8.85246C2.67 9.20496 2.13 9.45996 1.6875 9.63246C1.1175 9.85746 0.75 10.4125 0.75 11.0275V11.5C0.75 12.325 1.425 13 2.25 13H7.2525C7.65 13 8.0325 12.8425 8.31 12.5575L10.365 10.5025L10.6183 10.7558H12.7379L6.39417 4.40079L5.34 5.45496L6.9675 7.08246Z" fill="white"/>
</svg>
