<svg width="168" height="130" viewBox="0 0 168 130" fill="none" xmlns="http://www.w3.org/2000/svg">
<g filter="url(#filter0_d_24_2477)">
<path d="M138.321 9.64699L69.902 27.9798C58.2771 31.0947 48.5909 38.6439 42.6153 48.2762C38.4279 41.8924 30.5453 38.5254 22.7721 40.6082C13.108 43.1977 7.36626 53.1426 9.95574 62.8067C12.5452 72.4708 22.4902 78.2125 32.1542 75.623C33.6249 75.229 34.9692 74.6436 36.2759 73.9182C36.3949 75.7627 36.6027 77.6586 37.0393 79.5681C42.684 105.677 70.2326 120.812 95.5843 110.942C112.916 104.196 124.117 86.3337 122.979 67.7992C122.697 62.5457 121.403 57.7136 119.534 53.2606C117.778 49.2277 120.075 44.6342 124.346 43.4895L143.675 38.3106C149.748 36.608 151.985 32.6311 150.953 28.7794L147.2 14.7735C146.168 10.9219 142.173 8.61495 138.321 9.64699ZM28.4014 61.6171C26.4405 62.1425 24.4871 61.0147 23.9617 59.0538C23.4363 57.093 24.5641 55.1395 26.5249 54.6141C28.4858 54.0887 30.4392 55.2166 30.9646 57.1774C31.49 59.1382 30.3622 61.0917 28.4014 61.6171ZM85.1793 91.438C73.5543 94.5529 61.6559 87.6834 58.541 76.0585C55.4262 64.4335 62.2957 52.5351 73.9206 49.4203C85.5455 46.3054 97.4439 53.1749 100.559 64.7998C103.674 76.4247 96.8042 88.3231 85.1793 91.438Z" fill="white"/>
</g>
<path d="M83.3027 84.435C91.038 82.3623 95.6284 74.4115 93.5557 66.6762C91.4831 58.9409 83.5322 54.3505 75.7969 56.4231C68.0617 58.4958 63.4712 66.4467 65.5439 74.1819C67.6165 81.9172 75.5674 86.5077 83.3027 84.435Z" fill="white"/>
<defs>
<filter id="filter0_d_24_2477" x="0.434473" y="0.500635" width="159.661" height="122.382" filterUnits="userSpaceOnUse" color-interpolation-filters="sRGB">
<feFlood flood-opacity="0" result="BackgroundImageFix"/>
<feColorMatrix in="SourceAlpha" type="matrix" values="0 0 0 0 0 0 0 0 0 0 0 0 0 0 0 0 0 0 127 0" result="hardAlpha"/>
<feOffset/>
<feGaussianBlur stdDeviation="4.45"/>
<feComposite in2="hardAlpha" operator="out"/>
<feColorMatrix type="matrix" values="0 0 0 0 0 0 0 0 0 0 0 0 0 0 0 0 0 0 0.25 0"/>
<feBlend mode="normal" in2="BackgroundImageFix" result="effect1_dropShadow_24_2477"/>
<feBlend mode="normal" in="SourceGraphic" in2="effect1_dropShadow_24_2477" result="shape"/>
</filter>
</defs>
</svg>
