<svg width="16" height="20" viewBox="0 0 16 20" fill="none" xmlns="http://www.w3.org/2000/svg">
<g filter="url(#filter0_d_313_2062)">
<path d="M12.1666 8.6915V2.49984C12.1666 2.0415 11.7916 1.6665 11.3333 1.6665H4.66659C4.20825 1.6665 3.83325 2.0415 3.83325 2.49984V8.6915C3.83325 8.98317 3.98325 9.25817 4.24159 9.40817L7.72492 11.4998L6.89992 13.4498L5.04992 13.6082C4.66659 13.6415 4.51659 14.0998 4.79992 14.3415L6.20825 15.5582L5.78325 17.3748C5.69992 17.7332 6.09159 18.0165 6.40825 17.8248L7.99992 16.8582L9.59159 17.8165C9.90825 18.0082 10.2999 17.7248 10.2166 17.3665L9.79159 15.5498L11.1999 14.3332C11.4749 14.0915 11.3333 13.6332 10.9583 13.5998L9.10825 13.4415L8.28325 11.4915L11.7666 9.39984C12.0166 9.25817 12.1666 8.9915 12.1666 8.6915ZM8.83325 10.1915L7.99992 10.6915L7.16659 10.1915V2.49984H8.83325V10.1915Z" fill="url(#paint0_linear_313_2062)"/>
</g>
<defs>
<filter id="filter0_d_313_2062" x="0.833252" y="-0.333496" width="14.3333" height="22.2202" filterUnits="userSpaceOnUse" color-interpolation-filters="sRGB">
<feFlood flood-opacity="0" result="BackgroundImageFix"/>
<feColorMatrix in="SourceAlpha" type="matrix" values="0 0 0 0 0 0 0 0 0 0 0 0 0 0 0 0 0 0 127 0" result="hardAlpha"/>
<feOffset dy="1"/>
<feGaussianBlur stdDeviation="1.5"/>
<feComposite in2="hardAlpha" operator="out"/>
<feColorMatrix type="matrix" values="0 0 0 0 0 0 0 0 0 0 0 0 0 0 0 0 0 0 0.25 0"/>
<feBlend mode="normal" in2="BackgroundImageFix" result="effect1_dropShadow_313_2062"/>
<feBlend mode="normal" in="SourceGraphic" in2="effect1_dropShadow_313_2062" result="shape"/>
</filter>
<linearGradient id="paint0_linear_313_2062" x1="7.99992" y1="1.6665" x2="7.99992" y2="17.8866" gradientUnits="userSpaceOnUse">
<stop stop-color="white"/>
<stop offset="1" stop-color="#634D3D"/>
</linearGradient>
</defs>
</svg>
