<svg width="20" height="19" viewBox="0 0 20 19" fill="none" xmlns="http://www.w3.org/2000/svg">
<path d="M0.790215 12.28L0.700215 12.19C0.310215 11.8 0.310215 11.17 0.700215 10.78L6.79021 4.68003C7.18021 4.29003 7.81021 4.29003 8.20021 4.68003L11.4902 7.97003L17.8802 0.790028C18.2602 0.360028 18.9302 0.350029 19.3302 0.750029C19.7002 1.13003 19.7202 1.73003 19.3702 2.12003L12.2002 10.19C11.8202 10.62 11.1602 10.64 10.7502 10.23L7.50021 6.98003L2.20021 12.28C1.82021 12.67 1.18021 12.67 0.790215 12.28ZM2.20021 18.28L7.50021 12.98L10.7502 16.23C11.1602 16.64 11.8202 16.62 12.2002 16.19L19.3702 8.12003C19.7202 7.73003 19.7002 7.13003 19.3302 6.75003C18.9302 6.35003 18.2602 6.36003 17.8802 6.79003L11.4902 13.97L8.20021 10.68C7.81021 10.29 7.18021 10.29 6.79021 10.68L0.700215 16.78C0.310215 17.17 0.310215 17.8 0.700215 18.19L0.790215 18.28C1.18021 18.67 1.82021 18.67 2.20021 18.28Z" fill="white"/>
</svg>
