<svg width="124" height="31" viewBox="0 0 124 31" fill="none" xmlns="http://www.w3.org/2000/svg">
<path d="M11.825 30L0.944955 1.76H7.66496L15.945 24.6H13.185L21.585 1.76H28.225L17.225 30H11.825ZM37.2508 30.44C35.1441 30.44 33.2641 30.0133 31.6108 29.16C29.9841 28.28 28.7041 27.0667 27.7708 25.52C26.8375 23.9733 26.3708 22.2267 26.3708 20.28C26.3708 18.3333 26.8241 16.6 27.7308 15.08C28.6641 13.5333 29.9175 12.32 31.4908 11.44C33.0641 10.56 34.8375 10.12 36.8108 10.12C38.7308 10.12 40.4241 10.5333 41.8908 11.36C43.3575 12.1867 44.5041 13.3333 45.3308 14.8C46.1841 16.2667 46.6108 17.9467 46.6108 19.84C46.6108 20.1867 46.5841 20.56 46.5308 20.96C46.5041 21.3333 46.4375 21.7733 46.3308 22.28L29.5708 22.32V18.12L43.7308 18.08L41.0908 19.84C41.0641 18.72 40.8908 17.8 40.5708 17.08C40.2508 16.3333 39.7708 15.7733 39.1308 15.4C38.5175 15 37.7575 14.8 36.8508 14.8C35.8908 14.8 35.0508 15.0267 34.3308 15.48C33.6375 15.9067 33.0908 16.52 32.6908 17.32C32.3175 18.12 32.1308 19.0933 32.1308 20.24C32.1308 21.3867 32.3308 22.3733 32.7308 23.2C33.1575 24 33.7441 24.6267 34.4908 25.08C35.2641 25.5067 36.1708 25.72 37.2108 25.72C38.1708 25.72 39.0375 25.56 39.8108 25.24C40.5841 24.8933 41.2641 24.3867 41.8508 23.72L45.2108 27.08C44.2508 28.2 43.0908 29.04 41.7308 29.6C40.3708 30.16 38.8775 30.44 37.2508 30.44ZM49.9069 30V0.96H56.0269V30H49.9069ZM60.6787 30V0.96H66.7987V30H60.6787ZM80.8105 30.44C78.8105 30.44 76.9971 30 75.3705 29.12C73.7705 28.2133 72.5038 26.9867 71.5705 25.44C70.6371 23.8933 70.1705 22.16 70.1705 20.24C70.1705 18.32 70.6371 16.6 71.5705 15.08C72.5038 13.56 73.7705 12.36 75.3705 11.48C76.9705 10.5733 78.7838 10.12 80.8105 10.12C82.8371 10.12 84.6505 10.56 86.2505 11.44C87.8505 12.32 89.1171 13.5333 90.0505 15.08C90.9838 16.6 91.4505 18.32 91.4505 20.24C91.4505 22.16 90.9838 23.8933 90.0505 25.44C89.1171 26.9867 87.8505 28.2133 86.2505 29.12C84.6505 30 82.8371 30.44 80.8105 30.44ZM80.8105 24.88C81.6905 24.88 82.4638 24.6933 83.1305 24.32C83.7971 23.92 84.3038 23.3733 84.6505 22.68C85.0238 21.96 85.2105 21.1467 85.2105 20.24C85.2105 19.3333 85.0238 18.5467 84.6505 17.88C84.2771 17.1867 83.7571 16.6533 83.0905 16.28C82.4505 15.88 81.6905 15.68 80.8105 15.68C79.9571 15.68 79.1971 15.88 78.5305 16.28C77.8638 16.6533 77.3438 17.1867 76.9705 17.88C76.5971 18.5733 76.4105 19.3733 76.4105 20.28C76.4105 21.16 76.5971 21.96 76.9705 22.68C77.3438 23.3733 77.8638 23.92 78.5305 24.32C79.1971 24.6933 79.9571 24.88 80.8105 24.88ZM99.2088 30L92.4888 10.56H98.4888L102.649 24.68L100.889 24.72L105.489 10.56H110.449L115.089 24.72L113.289 24.68L117.489 10.56H123.489L116.769 30H111.769L107.249 16.56H108.769L104.169 30H99.2088Z" fill="url(#paint0_linear_22_286)"/>
<defs>
<linearGradient id="paint0_linear_22_286" x1="62" y1="-14" x2="120" y2="44" gradientUnits="userSpaceOnUse">
<stop stop-color="white"/>
<stop offset="1" stop-color="#999999"/>
</linearGradient>
</defs>
</svg>
