<svg width="16" height="15" viewBox="0 0 16 15" fill="none" xmlns="http://www.w3.org/2000/svg">
<path d="M7.99275 0.416748C4.08275 0.416748 0.916504 3.59008 0.916504 7.50008C0.916504 11.4101 4.08275 14.5834 7.99275 14.5834C11.9098 14.5834 15.0832 11.4101 15.0832 7.50008C15.0832 3.59008 11.9098 0.416748 7.99275 0.416748ZM10.2807 11.318L7.99984 9.94383L5.719 11.318C5.44984 11.4809 5.11692 11.2401 5.18775 10.9355L5.78984 8.343L3.78525 6.60758C3.5515 6.40216 3.679 6.01258 3.99067 5.98425L6.63984 5.75758L7.674 3.31383C7.79442 3.02341 8.20525 3.02341 8.32567 3.31383L9.35984 5.7505L12.009 5.97716C12.3207 6.0055 12.4482 6.39508 12.2073 6.6005L10.2028 8.33591L10.8048 10.9355C10.8757 11.2401 10.5498 11.4809 10.2807 11.318Z" fill="#C5D664"/>
</svg>
